<?xml version="1.0" encoding="utf-8"?>
<svg xmlns="http://www.w3.org/2000/svg" width="512px" height="512px" xmlns:bx="https://boxy-svg.com" viewBox="3 1.2 512 512"><title>Spark Studio cursor</title><defs><linearGradient id="disc" x1="0.008" y1="0.008" x2="1.008" y2="1.008" gradientTransform="matrix(0.720156, -0.285404, -0.260877, 0.733208, 0.114306, 0.117939)"><stop offset="0" style="stop-color: rgb(255, 197, 0);"/><stop offset="0.275" style="stop-color: rgb(156, 255, 0);"/><stop offset="0.591" style="stop-color: rgb(61, 228, 255);"/><stop offset="1" style="stop-color: rgb(203, 0, 255);"/></linearGradient><radialGradient id="tipGold" cx="-99.326" cy="0.727" r="34" gradientUnits="userSpaceOnUse" gradientTransform="matrix(-4.291042, -3.163057, 6.91665, -9.383213, -92.029255, -25.739427)"><stop offset="0" stop-opacity="0.9" style="stop-color: rgb(255, 191, 0);"/><stop offset="1" stop-color="#FFA22E" stop-opacity="0"/></radialGradient><filter id="pinkGlow" x="-60%" y="-60%" width="220%" height="220%"><feGaussianBlur stdDeviation="0.9" result="b"/><feMerge><feMergeNode in="b"/><feMergeNode in="SourceGraphic"/></feMerge></filter><path id="arrow" d="M5.09 5.02 a1.2375 1.2375 0 0 1 1.6275 -1.6275 l40 16.25 a1.25 1.25 0 0 1 -0.1575 2.3675 l-15.31 3.95 a5 5 0 0 0 -3.595 3.5875 l-3.9475 15.315 a1.25 1.25 0 0 1 -2.3675 0.1575 z"/><clipPath id="arrowClip"><path d="M5.09 5.02 a1.2375 1.2375 0 0 1 1.6275 -1.6275 l40 16.25 a1.25 1.25 0 0 1 -0.1575 2.3675 l-15.31 3.95 a5 5 0 0 0 -3.595 3.5875 l-3.9475 15.315 a1.25 1.25 0 0 1 -2.3675 0.1575 z"/></clipPath><linearGradient gradientUnits="userSpaceOnUse" x1="5.799" y1="10.549" x2="5.799" y2="20.326" id="gradient-0" gradientTransform="matrix(1.134885, 0, 0, 1.10981, 0.000128, -0.000181)"><stop offset="0" style="stop-color: rgb(179, 2, 255)"/><stop offset="1" style="stop-color: rgb(186, 0, 0);"/></linearGradient><linearGradient gradientUnits="userSpaceOnUse" x1="10.231" y1="6.358" x2="10.231" y2="24.516" id="gradient-1" gradientTransform="matrix(1.134842, -0.009878, 0.004362, 0.658878, -0.02717, 2.967908)"><stop offset="0" style="stop-color: rgb(255, 226, 2);"/><stop offset="1" style="stop-color: rgb(255, 0, 0);"/></linearGradient><linearGradient gradientUnits="userSpaceOnUse" x1="14.658" y1="9.152" x2="14.658" y2="21.723" id="gradient-2" gradientTransform="matrix(1.134861, 0.00733, -0.001694, 0.75623, 0.015982, 3.128326)"><stop offset="0" style="stop-color: rgb(255, 231, 2);"/><stop offset="1" style="stop-color: rgb(255, 0, 0);"/></linearGradient><linearGradient gradientUnits="userSpaceOnUse" x1="19.088" y1="4.962" x2="19.088" y2="25.913" id="gradient-3" gradientTransform="matrix(1.134767, -0.01635, 0.011418, 0.792499, -0.05428, 1.886399)"><stop offset="0" style="stop-color: rgb(255, 231, 2);"/><stop offset="0.579" style="stop-color: rgb(255, 98, 1);"/><stop offset="1" style="stop-color: rgb(255, 0, 0);"/></linearGradient><linearGradient gradientUnits="userSpaceOnUse" x1="23.517" y1="9.85" x2="23.517" y2="21.023" id="gradient-4" gradientTransform="matrix(1.134691, -0.020957, 0.006352, 0.762285, -0.057887, 3.915796)"><stop offset="0" style="stop-color: rgb(255, 231, 2);"/><stop offset="1" style="stop-color: rgb(255, 0, 0);"/></linearGradient><linearGradient gradientUnits="userSpaceOnUse" x1="27.947" y1="7.056" x2="27.947" y2="23.817" id="gradient-5" gradientTransform="matrix(1.134869, 0.006093, -0.003142, 0.702195, 0.022754, 2.705676)"><stop offset="0" style="stop-color: rgb(255, 231, 2);"/><stop offset="1" style="stop-color: rgb(255, 0, 0);"/></linearGradient><linearGradient gradientUnits="userSpaceOnUse" x1="31.988" y1="12.118" x2="31.988" y2="20.499" id="gradient-6" gradientTransform="matrix(1.134691, -0.021024, 0.008082, 0.663956, -0.002648, 6.059343)"><stop offset="0" style="stop-color: rgb(255, 231, 2);"/><stop offset="1" style="stop-color: rgb(255, 0, 0);"/></linearGradient><linearGradient gradientUnits="userSpaceOnUse" x1="36.807" y1="9.152" x2="36.807" y2="21.723" id="gradient-7" gradientTransform="matrix(1.134884, 0.00125, -0.003948, 0.589505, 0.036292, 4.715651)"><stop offset="0" style="stop-color: rgb(255, 231, 2);"/><stop offset="1" style="stop-color: rgb(255, 0, 0);"/></linearGradient><bx:export><bx:file format="svg" path="Spark Studio cursor 2.svg"/></bx:export></defs><path d="M 11.989 29.167 C 9.635 23.735 10.834 17.416 15.033 13.233 C 19.216 9.036 25.535 7.835 30.967 10.189 L 497.247 199.615 C 503.051 201.98 506.699 207.811 506.279 214.082 C 505.861 220.341 501.476 225.633 495.404 227.218 L 316.936 273.264 C 296.397 278.533 280.357 294.55 275.029 315.077 L 229.019 493.604 C 227.433 499.676 222.141 504.061 215.882 504.479 C 209.61 504.899 203.78 501.251 201.415 495.447 L 11.989 29.167 Z" fill="url(#disc)" style=""/><path d="M 11.989 29.167 C 9.635 23.735 10.834 17.416 15.033 13.233 C 19.216 9.036 25.535 7.835 30.967 10.189 L 497.247 199.615 C 503.051 201.98 506.699 207.811 506.279 214.082 C 505.861 220.341 501.476 225.633 495.404 227.218 L 316.936 273.264 C 296.397 278.533 280.357 294.55 275.029 315.077 L 229.019 493.604 C 227.433 499.676 222.141 504.061 215.882 504.479 C 209.61 504.899 203.78 501.251 201.415 495.447 L 11.989 29.167 Z" fill="url(#tipGold)" style="visibility: hidden;"/><g clip-path="url(#arrowClip)" filter="url(#pinkGlow)" opacity="0.85" transform="matrix(11.656964, 0, 0, 11.656964, -47.343079, -29.355543)" style=""><g fill="#FF2FB0"><rect x="5.017" y="11.708" width="3.127" height="10.849" rx="1.4" style="stroke: rgb(0, 0, 0); fill: url(&quot;#gradient-0&quot;); stroke-width: 0.498139px; transform-origin: 24.175px 17.133px 0px;" transform="matrix(0.99219, 0.124735, -0.124735, 0.99219, -0.17135, 4.829514)"/><rect x="10.045" y="7.055" width="3.127" height="20.151" rx="1.4" style="stroke: rgb(0, 0, 0); fill: url(&quot;#gradient-1&quot;); stroke-width: 0.498139px; transform-origin: 24.175px 17.133px 0px;" transform="matrix(0.99219, 0.124735, -0.124735, 0.99219, -0.17135, 4.829522)"/><rect x="15.07" y="10.156" width="3.127" height="13.949" rx="1.4" style="stroke: rgb(0, 0, 0); fill: url(&quot;#gradient-2&quot;); stroke-width: 0.498139px; transform-origin: 24.175px 17.133px 0px;" transform="matrix(0.99219, 0.124735, -0.124735, 0.99219, -0.17135, 4.829514)"/><rect x="20.099" y="5.506" width="3.127" height="23.255" rx="1.4" style="stroke: rgb(0, 0, 0); fill: url(&quot;#gradient-3&quot;); stroke-width: 0.498139px; transform-origin: 24.175px 17.133px 0px;" transform="matrix(0.99219, 0.124735, -0.124735, 0.99219, -0.17135, 4.829512)"/><rect x="25.128" y="10.934" width="3.127" height="12.4" rx="1.4" style="stroke: rgb(0, 0, 0); fill: url(&quot;#gradient-4&quot;); stroke-width: 0.498139px; transform-origin: 24.175px 17.133px 0px;" transform="matrix(0.99219, 0.124735, -0.124735, 0.99219, -0.17135, 4.829514)"/><rect x="30.152" y="7.83" width="3.127" height="18.602" rx="1.4" style="stroke: rgb(0, 0, 0); fill: url(&quot;#gradient-5&quot;); stroke-width: 0.498139px; transform-origin: 24.175px 17.133px 0px;" transform="matrix(0.99219, 0.124735, -0.124735, 0.99219, -0.17135, 4.829514)"/><rect x="35.178" y="12.483" width="3.127" height="9.3" rx="1.4" style="stroke: rgb(0, 0, 0); fill: url(&quot;#gradient-6&quot;); stroke-width: 0.498139px; transform-origin: 24.175px 17.133px 0px;" transform="matrix(0.99219, 0.124735, -0.124735, 0.99219, -0.17135, 4.829514)"/><rect x="40.205" y="10.156" width="3.127" height="13.949" rx="1.4" style="stroke: rgb(0, 0, 0); fill: url(&quot;#gradient-7&quot;); stroke-width: 0.498139px; transform-origin: 24.175px 17.133px 0px;" transform="matrix(0.99219, 0.124735, -0.124735, 0.99219, -0.17135, 4.829514)"/></g></g><path d="M 11.989 29.167 C 9.635 23.735 10.834 17.416 15.033 13.233 C 19.216 9.036 25.535 7.835 30.967 10.189 L 497.247 199.615 C 503.051 201.98 506.699 207.811 506.279 214.082 C 505.861 220.341 501.476 225.633 495.404 227.218 L 316.936 273.264 C 296.397 278.533 280.357 294.55 275.029 315.077 L 229.019 493.604 C 227.433 499.676 222.141 504.061 215.882 504.479 C 209.61 504.899 203.78 501.251 201.415 495.447 L 11.989 29.167 Z" fill="none" stroke-linejoin="round" opacity="0.95" style="stroke-width: 10px; stroke: rgb(0, 0, 0);"/></svg>